<mxfile host="Electron" agent="Mozilla/5.0 (Windows NT 10.0; Win64; x64) AppleWebKit/537.36 (KHTML, like Gecko) draw.io/24.7.17 Chrome/128.0.6613.36 Electron/32.0.1 Safari/537.36" version="24.7.17">
  <diagram name="Page-1" id="qkhVq3xkSC8S2TAvos-O">
    <mxGraphModel dx="2145" dy="2958" grid="1" gridSize="10" guides="1" tooltips="1" connect="1" arrows="1" fold="1" page="1" pageScale="1" pageWidth="850" pageHeight="1100" math="0" shadow="0">
      <root>
        <mxCell id="0" />
        <mxCell id="1" parent="0" />
        <mxCell id="gpHy2SOTPF1gwrQVZKYY-2" value="" style="rounded=0;whiteSpace=wrap;html=1;" parent="1" vertex="1">
          <mxGeometry x="-375" y="410" width="330" height="400" as="geometry" />
        </mxCell>
        <mxCell id="o5lfDt06KSDkytAMzfY3-34" value="" style="rounded=1;whiteSpace=wrap;html=1;" parent="1" vertex="1">
          <mxGeometry x="-810" y="-890" width="620" height="595" as="geometry" />
        </mxCell>
        <mxCell id="o5lfDt06KSDkytAMzfY3-16" value="" style="rounded=0;whiteSpace=wrap;html=1;" parent="1" vertex="1">
          <mxGeometry x="-700" y="-20" width="330" height="400" as="geometry" />
        </mxCell>
        <mxCell id="9NOLFh7U6uUHDFHtJSDR-100" value="" style="rounded=0;whiteSpace=wrap;html=1;" parent="1" vertex="1">
          <mxGeometry x="740" y="-940" width="500" height="750" as="geometry" />
        </mxCell>
        <mxCell id="9NOLFh7U6uUHDFHtJSDR-1" value="" style="rounded=0;whiteSpace=wrap;html=1;" parent="1" vertex="1">
          <mxGeometry x="200" y="267" width="500" height="400" as="geometry" />
        </mxCell>
        <mxCell id="9NOLFh7U6uUHDFHtJSDR-2" value="" style="rounded=0;whiteSpace=wrap;html=1;fillColor=#f8cecc;strokeColor=#b85450;" parent="1" vertex="1">
          <mxGeometry x="220" y="410" width="180" height="210" as="geometry" />
        </mxCell>
        <mxCell id="9NOLFh7U6uUHDFHtJSDR-3" value="" style="rounded=0;whiteSpace=wrap;html=1;fillColor=#d5e8d4;strokeColor=#82b366;" parent="1" vertex="1">
          <mxGeometry x="380" y="270" width="80" height="70" as="geometry" />
        </mxCell>
        <mxCell id="9NOLFh7U6uUHDFHtJSDR-4" value="" style="rounded=0;whiteSpace=wrap;html=1;fillColor=#d5e8d4;strokeColor=#82b366;" parent="1" vertex="1">
          <mxGeometry x="520" y="550" width="80" height="70" as="geometry" />
        </mxCell>
        <mxCell id="9NOLFh7U6uUHDFHtJSDR-5" value="" style="rounded=0;whiteSpace=wrap;html=1;fillColor=#d5e8d4;strokeColor=#82b366;" parent="1" vertex="1">
          <mxGeometry x="460" y="270" width="80" height="70" as="geometry" />
        </mxCell>
        <mxCell id="9NOLFh7U6uUHDFHtJSDR-6" value="" style="rounded=0;whiteSpace=wrap;html=1;fillColor=#d5e8d4;strokeColor=#82b366;" parent="1" vertex="1">
          <mxGeometry x="540" y="270" width="80" height="70" as="geometry" />
        </mxCell>
        <mxCell id="9NOLFh7U6uUHDFHtJSDR-7" value="" style="rounded=0;whiteSpace=wrap;html=1;fillColor=#f8cecc;strokeColor=#b85450;" parent="1" vertex="1">
          <mxGeometry x="400" y="340" width="180" height="210" as="geometry" />
        </mxCell>
        <mxCell id="9NOLFh7U6uUHDFHtJSDR-8" value="" style="rounded=0;whiteSpace=wrap;html=1;fillColor=#d5e8d4;strokeColor=#82b366;" parent="1" vertex="1">
          <mxGeometry x="300" y="340" width="80" height="70" as="geometry" />
        </mxCell>
        <mxCell id="9NOLFh7U6uUHDFHtJSDR-9" value="" style="rounded=0;whiteSpace=wrap;html=1;fillColor=#d5e8d4;strokeColor=#82b366;" parent="1" vertex="1">
          <mxGeometry x="220" y="340" width="80" height="70" as="geometry" />
        </mxCell>
        <mxCell id="9NOLFh7U6uUHDFHtJSDR-10" value="" style="rounded=0;whiteSpace=wrap;html=1;fillColor=#d5e8d4;strokeColor=#82b366;" parent="1" vertex="1">
          <mxGeometry x="300" y="270" width="80" height="70" as="geometry" />
        </mxCell>
        <mxCell id="9NOLFh7U6uUHDFHtJSDR-11" value="" style="rounded=0;whiteSpace=wrap;html=1;fillColor=#d5e8d4;strokeColor=#82b366;" parent="1" vertex="1">
          <mxGeometry x="220" y="270" width="80" height="70" as="geometry" />
        </mxCell>
        <mxCell id="9NOLFh7U6uUHDFHtJSDR-13" value="" style="rounded=0;whiteSpace=wrap;html=1;fillColor=#fff2cc;strokeColor=#d6b656;" parent="1" vertex="1">
          <mxGeometry x="200" y="270" width="20" height="70" as="geometry" />
        </mxCell>
        <mxCell id="9NOLFh7U6uUHDFHtJSDR-14" value="" style="rounded=0;whiteSpace=wrap;html=1;fillColor=#fff2cc;strokeColor=#d6b656;" parent="1" vertex="1">
          <mxGeometry x="200" y="340" width="20" height="70" as="geometry" />
        </mxCell>
        <mxCell id="9NOLFh7U6uUHDFHtJSDR-15" value="" style="rounded=0;whiteSpace=wrap;html=1;fillColor=#fff2cc;strokeColor=#d6b656;" parent="1" vertex="1">
          <mxGeometry x="200" y="410" width="20" height="70" as="geometry" />
        </mxCell>
        <mxCell id="9NOLFh7U6uUHDFHtJSDR-16" value="" style="rounded=0;whiteSpace=wrap;html=1;fillColor=#fff2cc;strokeColor=#d6b656;" parent="1" vertex="1">
          <mxGeometry x="200" y="480" width="20" height="70" as="geometry" />
        </mxCell>
        <mxCell id="9NOLFh7U6uUHDFHtJSDR-17" value="" style="rounded=0;whiteSpace=wrap;html=1;fillColor=#fff2cc;strokeColor=#d6b656;" parent="1" vertex="1">
          <mxGeometry x="380" y="340" width="20" height="70" as="geometry" />
        </mxCell>
        <mxCell id="9NOLFh7U6uUHDFHtJSDR-18" value="" style="rounded=0;whiteSpace=wrap;html=1;fillColor=#fff2cc;strokeColor=#d6b656;" parent="1" vertex="1">
          <mxGeometry x="200" y="550" width="20" height="70" as="geometry" />
        </mxCell>
        <mxCell id="9NOLFh7U6uUHDFHtJSDR-21" value="" style="rounded=0;whiteSpace=wrap;html=1;fillColor=#fff2cc;strokeColor=#d6b656;" parent="1" vertex="1">
          <mxGeometry x="480" y="550" width="20" height="70" as="geometry" />
        </mxCell>
        <mxCell id="9NOLFh7U6uUHDFHtJSDR-23" value="" style="rounded=0;whiteSpace=wrap;html=1;fillColor=#f8cecc;strokeColor=#b85450;rotation=-90;" parent="1" vertex="1">
          <mxGeometry x="-300" y="400" width="180" height="210" as="geometry" />
        </mxCell>
        <mxCell id="9NOLFh7U6uUHDFHtJSDR-24" value="" style="rounded=0;whiteSpace=wrap;html=1;fillColor=#d5e8d4;strokeColor=#82b366;" parent="1" vertex="1">
          <mxGeometry x="-660" y="-20" width="80" height="70" as="geometry" />
        </mxCell>
        <mxCell id="9NOLFh7U6uUHDFHtJSDR-25" value="" style="rounded=0;whiteSpace=wrap;html=1;fillColor=#d5e8d4;strokeColor=#82b366;rotation=90;" parent="1" vertex="1">
          <mxGeometry x="-705" y="197" width="80" height="70" as="geometry" />
        </mxCell>
        <mxCell id="9NOLFh7U6uUHDFHtJSDR-26" value="" style="rounded=0;whiteSpace=wrap;html=1;fillColor=#d5e8d4;strokeColor=#82b366;rotation=-90;" parent="1" vertex="1">
          <mxGeometry x="-705" y="278" width="80" height="70" as="geometry" />
        </mxCell>
        <mxCell id="9NOLFh7U6uUHDFHtJSDR-27" value="" style="rounded=0;whiteSpace=wrap;html=1;fillColor=#d5e8d4;strokeColor=#82b366;" parent="1" vertex="1">
          <mxGeometry x="-630" y="260" width="80" height="70" as="geometry" />
        </mxCell>
        <mxCell id="9NOLFh7U6uUHDFHtJSDR-28" value="" style="rounded=0;whiteSpace=wrap;html=1;fillColor=#f8cecc;strokeColor=#b85450;rotation=90;" parent="1" vertex="1">
          <mxGeometry x="-280" y="590" width="180" height="210" as="geometry" />
        </mxCell>
        <mxCell id="9NOLFh7U6uUHDFHtJSDR-29" value="" style="rounded=0;whiteSpace=wrap;html=1;fillColor=#d5e8d4;strokeColor=#82b366;" parent="1" vertex="1">
          <mxGeometry x="-785" y="-827" width="80" height="70" as="geometry" />
        </mxCell>
        <mxCell id="9NOLFh7U6uUHDFHtJSDR-30" value="" style="rounded=0;whiteSpace=wrap;html=1;fillColor=#d5e8d4;strokeColor=#82b366;" parent="1" vertex="1">
          <mxGeometry x="-660" y="50" width="80" height="70" as="geometry" />
        </mxCell>
        <mxCell id="9NOLFh7U6uUHDFHtJSDR-31" value="" style="rounded=0;whiteSpace=wrap;html=1;fillColor=#d5e8d4;strokeColor=#82b366;" parent="1" vertex="1">
          <mxGeometry x="-630" y="190" width="80" height="70" as="geometry" />
        </mxCell>
        <mxCell id="9NOLFh7U6uUHDFHtJSDR-32" value="" style="rounded=0;whiteSpace=wrap;html=1;fillColor=#d5e8d4;strokeColor=#82b366;" parent="1" vertex="1">
          <mxGeometry x="-660" y="120" width="80" height="70" as="geometry" />
        </mxCell>
        <mxCell id="9NOLFh7U6uUHDFHtJSDR-33" value="" style="rounded=0;whiteSpace=wrap;html=1;fillColor=#fff2cc;strokeColor=#d6b656;rotation=-180;" parent="1" vertex="1">
          <mxGeometry x="-680" y="120" width="20" height="70" as="geometry" />
        </mxCell>
        <mxCell id="9NOLFh7U6uUHDFHtJSDR-34" value="" style="rounded=0;whiteSpace=wrap;html=1;fillColor=#fff2cc;strokeColor=#d6b656;rotation=-180;" parent="1" vertex="1">
          <mxGeometry x="-560" y="120" width="20" height="70" as="geometry" />
        </mxCell>
        <mxCell id="9NOLFh7U6uUHDFHtJSDR-35" value="" style="rounded=0;whiteSpace=wrap;html=1;fillColor=#fff2cc;strokeColor=#d6b656;" parent="1" vertex="1">
          <mxGeometry x="-680" y="50" width="20" height="70" as="geometry" />
        </mxCell>
        <mxCell id="9NOLFh7U6uUHDFHtJSDR-36" value="" style="rounded=0;whiteSpace=wrap;html=1;fillColor=#fff2cc;strokeColor=#d6b656;" parent="1" vertex="1">
          <mxGeometry x="-580" y="50" width="20" height="70" as="geometry" />
        </mxCell>
        <mxCell id="9NOLFh7U6uUHDFHtJSDR-37" value="" style="rounded=0;whiteSpace=wrap;html=1;fillColor=#fff2cc;strokeColor=#d6b656;" parent="1" vertex="1">
          <mxGeometry x="-560" y="50" width="20" height="70" as="geometry" />
        </mxCell>
        <mxCell id="9NOLFh7U6uUHDFHtJSDR-38" value="" style="rounded=0;whiteSpace=wrap;html=1;fillColor=#fff2cc;strokeColor=#d6b656;rotation=-180;" parent="1" vertex="1">
          <mxGeometry x="-680" y="-20" width="20" height="70" as="geometry" />
        </mxCell>
        <mxCell id="9NOLFh7U6uUHDFHtJSDR-39" value="" style="rounded=0;whiteSpace=wrap;html=1;fillColor=#fff2cc;strokeColor=#d6b656;" parent="1" vertex="1">
          <mxGeometry x="-580" y="120" width="20" height="70" as="geometry" />
        </mxCell>
        <mxCell id="9NOLFh7U6uUHDFHtJSDR-40" value="" style="rounded=0;whiteSpace=wrap;html=1;fillColor=#fff2cc;strokeColor=#d6b656;" parent="1" vertex="1">
          <mxGeometry x="-560" y="-20" width="20" height="70" as="geometry" />
        </mxCell>
        <mxCell id="9NOLFh7U6uUHDFHtJSDR-41" value="" style="rounded=0;whiteSpace=wrap;html=1;fillColor=#fff2cc;strokeColor=#d6b656;rotation=-180;" parent="1" vertex="1">
          <mxGeometry x="-580" y="-20" width="20" height="70" as="geometry" />
        </mxCell>
        <mxCell id="9NOLFh7U6uUHDFHtJSDR-42" value="" style="rounded=0;whiteSpace=wrap;html=1;fillColor=#fff2cc;strokeColor=#d6b656;" parent="1" vertex="1">
          <mxGeometry x="500" y="550" width="20" height="70" as="geometry" />
        </mxCell>
        <mxCell id="9NOLFh7U6uUHDFHtJSDR-45" value="" style="endArrow=classic;startArrow=classic;html=1;rounded=0;" parent="1" edge="1">
          <mxGeometry width="50" height="50" relative="1" as="geometry">
            <mxPoint x="190" y="184.09" as="sourcePoint" />
            <mxPoint x="690" y="184.09" as="targetPoint" />
          </mxGeometry>
        </mxCell>
        <mxCell id="9NOLFh7U6uUHDFHtJSDR-46" value="" style="endArrow=classic;startArrow=classic;html=1;rounded=0;" parent="1" edge="1">
          <mxGeometry width="50" height="50" relative="1" as="geometry">
            <mxPoint x="160" y="1020" as="sourcePoint" />
            <mxPoint x="160" y="270" as="targetPoint" />
          </mxGeometry>
        </mxCell>
        <mxCell id="9NOLFh7U6uUHDFHtJSDR-47" value="&lt;font style=&quot;font-size: 20px;&quot;&gt;Dài&lt;/font&gt;" style="text;html=1;align=center;verticalAlign=middle;whiteSpace=wrap;rounded=0;" parent="1" vertex="1">
          <mxGeometry x="80" y="600" width="60" height="30" as="geometry" />
        </mxCell>
        <mxCell id="9NOLFh7U6uUHDFHtJSDR-49" value="&lt;span style=&quot;font-size: 20px;&quot;&gt;Rộng&lt;/span&gt;" style="text;html=1;align=center;verticalAlign=middle;whiteSpace=wrap;rounded=0;" parent="1" vertex="1">
          <mxGeometry x="410" y="130" width="60" height="30" as="geometry" />
        </mxCell>
        <mxCell id="9NOLFh7U6uUHDFHtJSDR-50" value="Input:&lt;div&gt;Miếng Gỗ:&amp;nbsp;&lt;/div&gt;&lt;div&gt;&lt;span style=&quot;background-color: initial; white-space-collapse: preserve;&quot;&gt;&#x9;&lt;/span&gt;&lt;span style=&quot;background-color: initial;&quot;&gt;Rộng: 100&lt;/span&gt;&lt;br&gt;&lt;/div&gt;&lt;div&gt;&lt;span style=&quot;white-space: pre;&quot;&gt;&#x9;&lt;/span&gt;Dài: 200&lt;br&gt;&lt;/div&gt;&lt;div&gt;Bàn x 2:&lt;/div&gt;&lt;div&gt;&lt;span style=&quot;white-space: pre;&quot;&gt;&#x9;&lt;/span&gt;Rộng: 40&lt;br&gt;&lt;/div&gt;&lt;div&gt;&lt;span style=&quot;white-space: pre;&quot;&gt;&#x9;&lt;/span&gt;Dài:&amp;nbsp;&lt;span style=&quot;background-color: initial;&quot;&gt;75&lt;/span&gt;&lt;/div&gt;&lt;div&gt;&lt;div&gt;Chân bàn x 8:&lt;/div&gt;&lt;div&gt;&lt;span style=&quot;white-space-collapse: preserve;&quot;&gt;&#x9;&lt;/span&gt;Rộng: 4&lt;br&gt;&lt;/div&gt;&lt;div&gt;&lt;span style=&quot;white-space-collapse: preserve;&quot;&gt;&#x9;&lt;/span&gt;Dài: 25&lt;/div&gt;&lt;/div&gt;&lt;div&gt;&lt;div&gt;Ghế x 8:&lt;/div&gt;&lt;div&gt;&lt;span style=&quot;white-space-collapse: preserve;&quot;&gt;&#x9;&lt;/span&gt;Rộng: 20&lt;br&gt;&lt;/div&gt;&lt;div&gt;&lt;span style=&quot;white-space-collapse: preserve;&quot;&gt;&#x9;&lt;/span&gt;Dài: 25&lt;/div&gt;&lt;/div&gt;" style="text;html=1;align=left;verticalAlign=middle;resizable=0;points=[];autosize=1;strokeColor=none;fillColor=none;" parent="1" vertex="1">
          <mxGeometry x="590" y="-1000" width="110" height="200" as="geometry" />
        </mxCell>
        <mxCell id="9NOLFh7U6uUHDFHtJSDR-63" value="output:&lt;div&gt;Miếng Gỗ:&amp;nbsp;&lt;/div&gt;&lt;div&gt;&lt;span style=&quot;background-color: initial; white-space-collapse: preserve;&quot;&gt;&#x9;&lt;/span&gt;&lt;span style=&quot;background-color: initial;&quot;&gt;Rộng: 100&lt;/span&gt;&lt;br&gt;&lt;/div&gt;&lt;div&gt;&lt;span style=&quot;white-space: pre;&quot;&gt;&#x9;&lt;/span&gt;Dài: 200&lt;br&gt;&lt;/div&gt;&lt;div&gt;Bàn x 2:&lt;/div&gt;&lt;div&gt;&lt;span style=&quot;white-space: pre;&quot;&gt;&#x9;&lt;/span&gt;Rộng: 40&lt;br&gt;&lt;/div&gt;&lt;div&gt;&lt;span style=&quot;white-space: pre;&quot;&gt;&#x9;&lt;/span&gt;Dài:&amp;nbsp;&lt;span style=&quot;background-color: initial;&quot;&gt;75&lt;/span&gt;&lt;/div&gt;&lt;div&gt;&lt;div&gt;Chân bàn x 8:&lt;/div&gt;&lt;div&gt;&lt;span style=&quot;white-space-collapse: preserve;&quot;&gt;&#x9;&lt;/span&gt;Rộng: 4&lt;br&gt;&lt;/div&gt;&lt;div&gt;&lt;span style=&quot;white-space-collapse: preserve;&quot;&gt;&#x9;&lt;/span&gt;Dài: 25&lt;/div&gt;&lt;/div&gt;&lt;div&gt;&lt;div&gt;Ghế x 8:&lt;/div&gt;&lt;div&gt;&lt;span style=&quot;white-space-collapse: preserve;&quot;&gt;&#x9;&lt;/span&gt;Rộng: 20&lt;br&gt;&lt;/div&gt;&lt;div&gt;&lt;span style=&quot;white-space-collapse: preserve;&quot;&gt;&#x9;&lt;/span&gt;Dài: 25&lt;/div&gt;&lt;/div&gt;" style="text;html=1;align=left;verticalAlign=middle;resizable=0;points=[];autosize=1;strokeColor=none;fillColor=none;" parent="1" vertex="1">
          <mxGeometry x="-120" y="-260" width="110" height="200" as="geometry" />
        </mxCell>
        <mxCell id="9NOLFh7U6uUHDFHtJSDR-64" value="78.5," style="rounded=0;whiteSpace=wrap;html=1;fillColor=#f8cecc;strokeColor=#b85450;rotation=0;" parent="1" vertex="1">
          <mxGeometry x="740" y="-730" width="180" height="210" as="geometry" />
        </mxCell>
        <mxCell id="9NOLFh7U6uUHDFHtJSDR-66" value="" style="rounded=0;whiteSpace=wrap;html=1;fillColor=#d5e8d4;strokeColor=#82b366;" parent="1" vertex="1">
          <mxGeometry x="820" y="-520" width="80" height="70" as="geometry" />
        </mxCell>
        <mxCell id="9NOLFh7U6uUHDFHtJSDR-67" value="" style="rounded=0;whiteSpace=wrap;html=1;fillColor=#d5e8d4;strokeColor=#82b366;" parent="1" vertex="1">
          <mxGeometry x="740" y="-310" width="80" height="70" as="geometry" />
        </mxCell>
        <mxCell id="9NOLFh7U6uUHDFHtJSDR-68" value="" style="rounded=0;whiteSpace=wrap;html=1;fillColor=#d5e8d4;strokeColor=#82b366;" parent="1" vertex="1">
          <mxGeometry x="740" y="-380" width="80" height="70" as="geometry" />
        </mxCell>
        <mxCell id="9NOLFh7U6uUHDFHtJSDR-69" value="38.5,20" style="rounded=0;whiteSpace=wrap;html=1;fillColor=#f8cecc;strokeColor=#b85450;rotation=-180;" parent="1" vertex="1">
          <mxGeometry x="740" y="-940" width="180" height="210" as="geometry" />
        </mxCell>
        <mxCell id="9NOLFh7U6uUHDFHtJSDR-70" value="" style="rounded=0;whiteSpace=wrap;html=1;fillColor=#d5e8d4;strokeColor=#82b366;rotation=0;" parent="1" vertex="1">
          <mxGeometry x="740" y="-450" width="80" height="70" as="geometry" />
        </mxCell>
        <mxCell id="9NOLFh7U6uUHDFHtJSDR-72" value="" style="rounded=0;whiteSpace=wrap;html=1;fillColor=#d5e8d4;strokeColor=#82b366;" parent="1" vertex="1">
          <mxGeometry x="740" y="-520" width="80" height="70" as="geometry" />
        </mxCell>
        <mxCell id="9NOLFh7U6uUHDFHtJSDR-73" value="" style="rounded=0;whiteSpace=wrap;html=1;fillColor=#d5e8d4;strokeColor=#82b366;rotation=0;direction=east;" parent="1" vertex="1">
          <mxGeometry x="820" y="-450" width="80" height="70" as="geometry" />
        </mxCell>
        <mxCell id="9NOLFh7U6uUHDFHtJSDR-74" value="" style="rounded=0;whiteSpace=wrap;html=1;fillColor=#fff2cc;strokeColor=#d6b656;rotation=-180;" parent="1" vertex="1">
          <mxGeometry x="900" y="-450" width="20" height="70" as="geometry" />
        </mxCell>
        <mxCell id="9NOLFh7U6uUHDFHtJSDR-75" value="" style="rounded=0;whiteSpace=wrap;html=1;fillColor=#fff2cc;strokeColor=#d6b656;rotation=-180;" parent="1" vertex="1">
          <mxGeometry x="920" y="-870" width="20" height="70" as="geometry" />
        </mxCell>
        <mxCell id="9NOLFh7U6uUHDFHtJSDR-76" value="" style="rounded=0;whiteSpace=wrap;html=1;fillColor=#fff2cc;strokeColor=#d6b656;rotation=-180;" parent="1" vertex="1">
          <mxGeometry x="920" y="-730" width="20" height="70" as="geometry" />
        </mxCell>
        <mxCell id="9NOLFh7U6uUHDFHtJSDR-77" value="" style="rounded=0;whiteSpace=wrap;html=1;fillColor=#fff2cc;strokeColor=#d6b656;rotation=-180;" parent="1" vertex="1">
          <mxGeometry x="900" y="-380" width="20" height="70" as="geometry" />
        </mxCell>
        <mxCell id="9NOLFh7U6uUHDFHtJSDR-78" value="" style="rounded=0;whiteSpace=wrap;html=1;fillColor=#fff2cc;strokeColor=#d6b656;rotation=-180;" parent="1" vertex="1">
          <mxGeometry x="900" y="-520" width="20" height="70" as="geometry" />
        </mxCell>
        <mxCell id="9NOLFh7U6uUHDFHtJSDR-79" value="" style="rounded=0;whiteSpace=wrap;html=1;fillColor=#fff2cc;strokeColor=#d6b656;" parent="1" vertex="1">
          <mxGeometry x="920" y="-940" width="20" height="70" as="geometry" />
        </mxCell>
        <mxCell id="9NOLFh7U6uUHDFHtJSDR-80" value="" style="rounded=0;whiteSpace=wrap;html=1;fillColor=#fff2cc;strokeColor=#d6b656;" parent="1" vertex="1">
          <mxGeometry x="900" y="-310" width="20" height="70" as="geometry" />
        </mxCell>
        <mxCell id="9NOLFh7U6uUHDFHtJSDR-81" value="" style="rounded=0;whiteSpace=wrap;html=1;fillColor=#fff2cc;strokeColor=#d6b656;rotation=0;" parent="1" vertex="1">
          <mxGeometry x="920" y="-800" width="20" height="70" as="geometry" />
        </mxCell>
        <mxCell id="9NOLFh7U6uUHDFHtJSDR-109" value="0,0" style="text;html=1;align=center;verticalAlign=middle;resizable=0;points=[];autosize=1;strokeColor=none;fillColor=none;" parent="1" vertex="1">
          <mxGeometry x="710" y="-960" width="40" height="30" as="geometry" />
        </mxCell>
        <mxCell id="9NOLFh7U6uUHDFHtJSDR-110" value="100,200" style="text;html=1;align=center;verticalAlign=middle;resizable=0;points=[];autosize=1;strokeColor=none;fillColor=none;" parent="1" vertex="1">
          <mxGeometry x="1230" y="-190" width="70" height="30" as="geometry" />
        </mxCell>
        <mxCell id="9NOLFh7U6uUHDFHtJSDR-112" value="&lt;font style=&quot;font-size: 18px;&quot;&gt;Policy ver 1:&lt;/font&gt;&lt;div style=&quot;font-size: 18px;&quot;&gt;&lt;font style=&quot;font-size: 18px;&quot;&gt;1.Dùng miếng to nhất trước rồi tới các miếng nhỏ hơn&lt;/font&gt;&lt;/div&gt;&lt;div style=&quot;font-size: 18px;&quot;&gt;&lt;font style=&quot;font-size: 18px;&quot;&gt;2.Miếng đầu tiên phải đụng 2 cạnh thì đc nhiều điểm nhất( chỉ áp dụng cho miếng đầu tiên )&lt;/font&gt;&lt;/div&gt;&lt;div style=&quot;font-size: 18px;&quot;&gt;&lt;font style=&quot;font-size: 18px;&quot;&gt;3.Miếng thứ 2 phải đặt sát cạnh miếng thứ nhất và sát cạnh miếng gỗ to&amp;nbsp;&lt;/font&gt;&lt;/div&gt;&lt;div style=&quot;font-size: 18px;&quot;&gt;&lt;font style=&quot;font-size: 18px;&quot;&gt;4.Lực hút trái đất :))))&lt;/font&gt;&lt;/div&gt;" style="text;html=1;align=left;verticalAlign=middle;resizable=0;points=[];autosize=1;strokeColor=none;fillColor=none;" parent="1" vertex="1">
          <mxGeometry x="680" y="-1160" width="750" height="120" as="geometry" />
        </mxCell>
        <mxCell id="9NOLFh7U6uUHDFHtJSDR-113" value="" style="rounded=0;whiteSpace=wrap;html=1;fillColor=#d5e8d4;strokeColor=#82b366;" parent="1" vertex="1">
          <mxGeometry x="400" y="550" width="80" height="70" as="geometry" />
        </mxCell>
        <mxCell id="9NOLFh7U6uUHDFHtJSDR-129" value="" style="shape=flexArrow;endArrow=classic;html=1;rounded=0;" parent="1" edge="1">
          <mxGeometry width="50" height="50" relative="1" as="geometry">
            <mxPoint x="830" y="-960" as="sourcePoint" />
            <mxPoint x="750" y="-960" as="targetPoint" />
          </mxGeometry>
        </mxCell>
        <mxCell id="9NOLFh7U6uUHDFHtJSDR-131" value="" style="rounded=0;whiteSpace=wrap;html=1;fillColor=#d5e8d4;strokeColor=#82b366;rotation=0;direction=east;" parent="1" vertex="1">
          <mxGeometry x="820" y="-380" width="80" height="70" as="geometry" />
        </mxCell>
        <mxCell id="9NOLFh7U6uUHDFHtJSDR-132" value="" style="rounded=0;whiteSpace=wrap;html=1;fillColor=#d5e8d4;strokeColor=#82b366;rotation=0;direction=east;" parent="1" vertex="1">
          <mxGeometry x="820" y="-310" width="80" height="70" as="geometry" />
        </mxCell>
        <mxCell id="o5lfDt06KSDkytAMzfY3-1" value="&lt;div&gt;Use Case:&amp;nbsp;&lt;/div&gt;&lt;div&gt;Cắt từ miếng gỗ to thành các miếng gỗ nhỏ hơn với đa&amp;nbsp;&lt;/div&gt;&lt;div&gt;dạng kích cỡ nhằm mục đích để tạo thành các sản phẩm thực tế&amp;nbsp;&lt;/div&gt;&lt;div&gt;&lt;br&gt;&lt;/div&gt;Dataset:&lt;div&gt;&lt;span style=&quot;white-space: pre;&quot;&gt;&#x9;&lt;/span&gt;&lt;br&gt;&lt;/div&gt;&lt;div&gt;&lt;br&gt;&lt;/div&gt;" style="text;html=1;align=left;verticalAlign=middle;resizable=0;points=[];autosize=1;strokeColor=none;fillColor=none;" parent="1" vertex="1">
          <mxGeometry x="365" y="-65" width="370" height="110" as="geometry" />
        </mxCell>
        <mxCell id="o5lfDt06KSDkytAMzfY3-4" value="Dataset:&lt;div&gt;&lt;span style=&quot;white-space: pre;&quot;&gt;&#x9;&lt;/span&gt;- Miếng gỗ to:&lt;/div&gt;&lt;div&gt;&lt;span style=&quot;white-space: pre;&quot;&gt;&#x9;&lt;span style=&quot;white-space: pre;&quot;&gt;&#x9;&lt;/span&gt;&lt;/span&gt;-&amp;nbsp;Kích thước:&lt;/div&gt;&lt;div&gt;&lt;span style=&quot;background-color: initial;&quot;&gt;&lt;span style=&quot;white-space: pre;&quot;&gt;&#x9;&lt;/span&gt;&lt;span style=&quot;white-space: pre;&quot;&gt;&#x9;&lt;/span&gt;&lt;span style=&quot;white-space: pre;&quot;&gt;&#x9;&lt;/span&gt;- Rộng: 100&lt;/span&gt;&lt;/div&gt;&lt;div&gt;&lt;span style=&quot;background-color: initial;&quot;&gt;&lt;span style=&quot;white-space: pre;&quot;&gt;&#x9;&lt;/span&gt;&lt;span style=&quot;white-space: pre;&quot;&gt;&#x9;&lt;/span&gt;&lt;span style=&quot;white-space: pre;&quot;&gt;&#x9;&lt;/span&gt;- Dài: 200&lt;/span&gt;&lt;/div&gt;&lt;div&gt;&lt;span style=&quot;white-space: pre;&quot;&gt;&#x9;&lt;/span&gt;&lt;span style=&quot;white-space: pre;&quot;&gt;&#x9;&lt;/span&gt;- Giá trị:&lt;/div&gt;&lt;div&gt;&lt;span style=&quot;white-space: pre;&quot;&gt;&#x9;&lt;/span&gt;&lt;span style=&quot;white-space: pre;&quot;&gt;&#x9;&lt;/span&gt;&lt;span style=&quot;white-space: pre;&quot;&gt;&#x9;&lt;/span&gt;&amp;nbsp;-&amp;nbsp; 0.8 đô trên một mét vuông&lt;br&gt;&lt;/div&gt;&lt;div&gt;&lt;span style=&quot;white-space: pre;&quot;&gt;&#x9;&lt;/span&gt;- Đơn hàng:&lt;/div&gt;&lt;div&gt;&lt;span style=&quot;white-space: pre;&quot;&gt;&#x9;&lt;/span&gt;&lt;span style=&quot;white-space: pre;&quot;&gt;&#x9;&lt;/span&gt;-&amp;nbsp;&lt;/div&gt;" style="text;html=1;align=left;verticalAlign=middle;resizable=0;points=[];autosize=1;strokeColor=none;fillColor=none;" parent="1" vertex="1">
          <mxGeometry x="470" y="-765" width="260" height="140" as="geometry" />
        </mxCell>
        <mxCell id="o5lfDt06KSDkytAMzfY3-5" value="" style="rounded=0;whiteSpace=wrap;html=1;" parent="1" vertex="1">
          <mxGeometry x="1570" y="-850" width="500" height="750" as="geometry" />
        </mxCell>
        <mxCell id="o5lfDt06KSDkytAMzfY3-6" value="1" style="rounded=0;whiteSpace=wrap;html=1;fillColor=#f8cecc;strokeColor=#b85450;rotation=0;" parent="1" vertex="1">
          <mxGeometry x="1570" y="-850" width="180" height="210" as="geometry" />
        </mxCell>
        <mxCell id="o5lfDt06KSDkytAMzfY3-7" value="2" style="rounded=0;whiteSpace=wrap;html=1;fillColor=#f8cecc;strokeColor=#b85450;rotation=0;direction=west;" parent="1" vertex="1">
          <mxGeometry x="1750" y="-850" width="180" height="210" as="geometry" />
        </mxCell>
        <mxCell id="o5lfDt06KSDkytAMzfY3-8" value="" style="rounded=0;whiteSpace=wrap;html=1;fillColor=#d5e8d4;strokeColor=#82b366;" parent="1" vertex="1">
          <mxGeometry x="1930" y="-850" width="80" height="70" as="geometry" />
        </mxCell>
        <mxCell id="o5lfDt06KSDkytAMzfY3-9" value="" style="shape=flexArrow;endArrow=classic;html=1;rounded=0;" parent="1" edge="1">
          <mxGeometry width="50" height="50" relative="1" as="geometry">
            <mxPoint x="1650" y="-960" as="sourcePoint" />
            <mxPoint x="1570" y="-960" as="targetPoint" />
          </mxGeometry>
        </mxCell>
        <mxCell id="o5lfDt06KSDkytAMzfY3-13" value="&lt;div&gt;&lt;span style=&quot;font-size: 18px;&quot;&gt;Mục đích giải quyết bài toán&lt;/span&gt;&lt;/div&gt;&lt;div&gt;&lt;span style=&quot;font-size: 18px;&quot;&gt;&lt;br&gt;&lt;/span&gt;&lt;/div&gt;&lt;span style=&quot;font-size: 18px;&quot;&gt;Định nghĩa thế nào là Lãng phí, nhiều cost&lt;/span&gt;&lt;div&gt;&lt;span style=&quot;font-size: 18px;&quot;&gt;1. là khi ta không tận dung được hết toàn bộ phần diện tích trống trên miếng gỗ to&lt;/span&gt;&lt;/div&gt;&lt;div&gt;&lt;span style=&quot;font-size: 18px;&quot;&gt;&lt;br&gt;&lt;/span&gt;&lt;/div&gt;&lt;div&gt;&lt;span style=&quot;font-size: 18px;&quot;&gt;Làm sao để trách lãng phí, bớt cost:&lt;/span&gt;&lt;/div&gt;&lt;div&gt;&lt;div style=&quot;&quot;&gt;&lt;span style=&quot;font-size: 18px;&quot;&gt;Tối đa hóa việc sử dụng diện tích mỗi tấm, Giảm số tấm cần dùng xuống mức tối thiểu&lt;/span&gt;&lt;/div&gt;&lt;div style=&quot;font-size: 18px;&quot;&gt;&lt;br&gt;&lt;/div&gt;&lt;/div&gt;&lt;div&gt;&lt;span style=&quot;font-size: 18px; background-color: initial;&quot;&gt;(Ý Tham khảo)Số lần máy cưa chạy qua miếng gỗ to để cắt miếng gỗ nhỏ&lt;/span&gt;&lt;/div&gt;&lt;div&gt;&lt;span style=&quot;font-size: 18px; background-color: initial;&quot;&gt;Câu hỏi đặt ra: Làm sao để biết máy cưa chạy qua miếng gỗ to mấy lần&amp;nbsp;&lt;/span&gt;&lt;/div&gt;" style="text;html=1;align=left;verticalAlign=middle;resizable=0;points=[];autosize=1;strokeColor=none;fillColor=none;" parent="1" vertex="1">
          <mxGeometry x="1260" y="-1380" width="710" height="230" as="geometry" />
        </mxCell>
        <mxCell id="o5lfDt06KSDkytAMzfY3-24" value="&lt;span style=&quot;font-size: 18px;&quot;&gt;Goal, có 2 hướng đi:&lt;/span&gt;&lt;div&gt;&lt;span style=&quot;font-size: 18px;&quot;&gt;- Tránh lãng phí( ưu tiên hàng đầu )&lt;/span&gt;&lt;/div&gt;&lt;div&gt;&lt;span style=&quot;font-size: 18px;&quot;&gt;- Đáp ứng được item trong đơn hàng nhất(hoàn&amp;nbsp;&lt;/span&gt;&lt;/div&gt;&lt;div&gt;&lt;span style=&quot;font-size: 18px;&quot;&gt;thi&lt;/span&gt;&lt;span style=&quot;font-size: 18px; background-color: initial;&quot;&gt;ện được nhiều item trong đơn hàng nhất có thế)(ưu tiên thứ yếu)&lt;/span&gt;&lt;/div&gt;" style="text;html=1;align=left;verticalAlign=middle;resizable=0;points=[];autosize=1;strokeColor=none;fillColor=none;" parent="1" vertex="1">
          <mxGeometry x="1260" y="-1860" width="560" height="100" as="geometry" />
        </mxCell>
        <mxCell id="o5lfDt06KSDkytAMzfY3-25" value="" style="rounded=0;whiteSpace=wrap;html=1;fillColor=#f8cecc;strokeColor=#b85450;rotation=-90;" parent="1" vertex="1">
          <mxGeometry x="-630" y="-757" width="180" height="210" as="geometry" />
        </mxCell>
        <mxCell id="o5lfDt06KSDkytAMzfY3-26" value="" style="rounded=0;whiteSpace=wrap;html=1;fillColor=#d5e8d4;strokeColor=#82b366;" parent="1" vertex="1">
          <mxGeometry x="-725" y="-744" width="80" height="70" as="geometry" />
        </mxCell>
        <mxCell id="o5lfDt06KSDkytAMzfY3-27" value="" style="rounded=0;whiteSpace=wrap;html=1;fillColor=#d5e8d4;strokeColor=#82b366;rotation=90;" parent="1" vertex="1">
          <mxGeometry x="-770" y="-527" width="80" height="70" as="geometry" />
        </mxCell>
        <mxCell id="o5lfDt06KSDkytAMzfY3-28" value="" style="rounded=0;whiteSpace=wrap;html=1;fillColor=#d5e8d4;strokeColor=#82b366;rotation=-90;" parent="1" vertex="1">
          <mxGeometry x="-770" y="-446" width="80" height="70" as="geometry" />
        </mxCell>
        <mxCell id="o5lfDt06KSDkytAMzfY3-29" value="" style="rounded=0;whiteSpace=wrap;html=1;fillColor=#d5e8d4;strokeColor=#82b366;" parent="1" vertex="1">
          <mxGeometry x="-695" y="-464" width="80" height="70" as="geometry" />
        </mxCell>
        <mxCell id="o5lfDt06KSDkytAMzfY3-30" value="" style="rounded=0;whiteSpace=wrap;html=1;fillColor=#f8cecc;strokeColor=#b85450;" parent="1" vertex="1">
          <mxGeometry x="-615" y="-554" width="180" height="210" as="geometry" />
        </mxCell>
        <mxCell id="o5lfDt06KSDkytAMzfY3-31" value="" style="rounded=0;whiteSpace=wrap;html=1;fillColor=#d5e8d4;strokeColor=#82b366;" parent="1" vertex="1">
          <mxGeometry x="-725" y="-674" width="80" height="70" as="geometry" />
        </mxCell>
        <mxCell id="o5lfDt06KSDkytAMzfY3-32" value="" style="rounded=0;whiteSpace=wrap;html=1;fillColor=#d5e8d4;strokeColor=#82b366;" parent="1" vertex="1">
          <mxGeometry x="-695" y="-534" width="80" height="70" as="geometry" />
        </mxCell>
        <mxCell id="o5lfDt06KSDkytAMzfY3-33" value="" style="rounded=0;whiteSpace=wrap;html=1;fillColor=#d5e8d4;strokeColor=#82b366;" parent="1" vertex="1">
          <mxGeometry x="-725" y="-604" width="80" height="70" as="geometry" />
        </mxCell>
        <mxCell id="o5lfDt06KSDkytAMzfY3-45" value="&lt;font style=&quot;font-size: 18px;&quot;&gt;Policy:&lt;/font&gt;&lt;div style=&quot;font-size: 18px;&quot;&gt;&lt;font style=&quot;font-size: 18px;&quot;&gt;1.Dùng miếng to nhất trước rồi tới các miếng nhỏ hơn&lt;/font&gt;&lt;/div&gt;&lt;div style=&quot;font-size: 18px;&quot;&gt;&lt;font style=&quot;font-size: 18px;&quot;&gt;2.Miếng đầu tiên phải đụng 2 cạnh thì được nhiều điểm nhất( chỉ áp dụng cho miếng đầu tiên )&lt;/font&gt;&lt;/div&gt;&lt;div style=&quot;font-size: 18px;&quot;&gt;&lt;font style=&quot;font-size: 18px;&quot;&gt;3.Miếng thứ 2 phải đặt sát cạnh miếng thứ nhất và\hoặc sát cạnh miếng gỗ to(ưu tiên đụng cạnh trước)&lt;/font&gt;&lt;/div&gt;" style="text;html=1;align=left;verticalAlign=middle;resizable=0;points=[];autosize=1;strokeColor=none;fillColor=none;" parent="1" vertex="1">
          <mxGeometry x="1260" y="-1740" width="850" height="100" as="geometry" />
        </mxCell>
        <mxCell id="o5lfDt06KSDkytAMzfY3-46" value="" style="rounded=0;whiteSpace=wrap;html=1;fillColor=#f8cecc;strokeColor=#b85450;rotation=-90;" parent="1" vertex="1">
          <mxGeometry x="790" y="340" width="180" height="210" as="geometry" />
        </mxCell>
        <mxCell id="gpHy2SOTPF1gwrQVZKYY-1" value="&lt;span style=&quot;font-size: 18px;&quot;&gt;Reward:&lt;/span&gt;&lt;div&gt;&lt;div&gt;&lt;span style=&quot;font-size: 18px;&quot;&gt;a) +10: Đặt miếng đầu tiên đụng 2 cạnh (chỉ áp dụng cho miếng đầu tiên trong mỗi tấm, ví dụ: (0,0)).&lt;/span&gt;&lt;/div&gt;&lt;div&gt;&lt;span style=&quot;font-size: 18px;&quot;&gt;b) +8: Đặt miếng thứ n trở đi&amp;nbsp;&lt;/span&gt;&lt;span style=&quot;font-size: 18px; background-color: initial;&quot;&gt;phải đặt sát cạnh miếng (n - 1)&amp;nbsp;&lt;font color=&quot;#ff0000&quot;&gt;và &lt;/font&gt;sát cạnh miếng gỗ to.&lt;/span&gt;&lt;/div&gt;&lt;div&gt;&lt;div&gt;&lt;span style=&quot;font-size: 18px;&quot;&gt;c) +5: Đặt miếng thứ n trở đi&amp;nbsp;&lt;/span&gt;&lt;span style=&quot;font-size: 18px; background-color: initial;&quot;&gt;phải đặt sát cạnh miếng&amp;nbsp;&lt;/span&gt;&lt;span style=&quot;font-size: 18px; background-color: initial;&quot;&gt;(n - 1)&amp;nbsp;&lt;/span&gt;&lt;font style=&quot;background-color: initial; font-size: 18px;&quot; color=&quot;#ff0000&quot;&gt;hoặc &lt;/font&gt;&lt;span style=&quot;background-color: initial; font-size: 18px;&quot;&gt;sát cạnh miếng gỗ to.&lt;/span&gt;&lt;/div&gt;&lt;/div&gt;&lt;div&gt;&lt;span style=&quot;font-size: 18px; background-color: initial;&quot;&gt;e) +1: Đặt thành công một mảnh gỗ (không phải miếng đầu tiên).&lt;/span&gt;&lt;br&gt;&lt;/div&gt;&lt;div&gt;&lt;span style=&quot;font-size: 18px; background-color: initial;&quot;&gt;f) -10: Dùng một tấm gỗ to mới.&lt;/span&gt;&lt;br&gt;&lt;/div&gt;&lt;div&gt;&lt;span style=&quot;font-size: 18px;&quot;&gt;g) -0.01 x diện tích thừa: Khi hoàn thành một tấm (diện tích thừa = số ô 0 còn lại x 1 cm²).&lt;/span&gt;&lt;/div&gt;&lt;div&gt;&lt;span style=&quot;font-size: 18px;&quot;&gt;h) +50: Khi hoàn thành toàn bộ đơn hàng.&lt;/span&gt;&lt;/div&gt;&lt;/div&gt;" style="text;html=1;align=left;verticalAlign=middle;resizable=0;points=[];autosize=1;strokeColor=none;fillColor=none;" parent="1" vertex="1">
          <mxGeometry x="1260" y="-1595" width="820" height="190" as="geometry" />
        </mxCell>
        <mxCell id="gpHy2SOTPF1gwrQVZKYY-5" value="3" style="rounded=0;whiteSpace=wrap;html=1;fillColor=#f8cecc;strokeColor=#b85450;rotation=90;" parent="1" vertex="1">
          <mxGeometry x="1585" y="-654" width="180" height="210" as="geometry" />
        </mxCell>
        <mxCell id="gpHy2SOTPF1gwrQVZKYY-6" value="" style="rounded=0;whiteSpace=wrap;html=1;fillColor=#d5e8d4;strokeColor=#82b366;" parent="1" vertex="1">
          <mxGeometry x="2260" y="-527" width="80" height="70" as="geometry" />
        </mxCell>
        <mxCell id="gpHy2SOTPF1gwrQVZKYY-7" value="" style="rounded=0;whiteSpace=wrap;html=1;fillColor=#d5e8d4;strokeColor=#82b366;" parent="1" vertex="1">
          <mxGeometry x="2260" y="-457" width="80" height="70" as="geometry" />
        </mxCell>
        <mxCell id="gpHy2SOTPF1gwrQVZKYY-8" value="4" style="rounded=0;whiteSpace=wrap;html=1;fillColor=#f8cecc;strokeColor=#b85450;rotation=0;" parent="1" vertex="1">
          <mxGeometry x="1570" y="-457" width="180" height="210" as="geometry" />
        </mxCell>
        <mxCell id="uMhd6O-rEUrFIJEaI0nE-1" value="&lt;div&gt;&lt;font style=&quot;font-size: 36px;&quot;&gt;&lt;span data-canva-clipboard=&quot;ewAiAGEAIgA6ADUALAAiAGgAIgA6ACIAdwB3AHcALgBjAGEAbgB2AGEALgBjAG8AbQAiACwAIgBjACIAOgAiAEQAQQBHAGYANwByADYAUgBTAEUAbwAiACwAIgBpACIAOgAiAFgAXwBRAHQAYQBaADEAUwBhAEYALQA2AEUARgBVAGkAUwBhAHIAcwA2AGcAIgAsACIAYgAiADoAMQA3ADQAMAAzADIAMAAzADAANgA2ADkAMwAsACIAQQA/ACIAOgAiAEIAIgAsACIAQQAiADoAWwB7ACIAQQAiADoAMwAzADkALgA5ADkANwA0ADYAOAA3ADkAMgA2ADcANQAsACIAQgAiADoANgAxAC4AMAA5ADgAMAAyADIAMQAwADgANQAyADUAMQAzACwAIgBEACIAOgAxADAAMQA1AC4ANQA0ADMANAAyADgAMQA0ADgAOQA3ADIAOQAsACIAQwAiADoANgAwADgALAAiAE4AIgA6ACIAaABlAGEAZABpAG4AZwAiACwAIgBUACIAOgB7ACIAQQBBAEEAQgBsAFQATQBzAGMAcwBHAGgAeABiAHoAQgBkAG4AZwAzAGoAQQAiADoAMQB9ACwAIgBBAD8AIgA6ACIASwAiACwAIgBhACIAOgB7ACIAQQAiADoAWwB7ACIAQQA/ACIAOgAiAEEAIgAsACIAQQAiADoAIgBCAKEebgAgAGwA4AAgAG0A2R50ACAAQQBJACAAZQBuAGcAaQBuAGUAZQByACAAIgB9ACwAewAiAEEAPwAiADoAIgBCACIALAAiAEEAIgA6ADEANQB9ACwAewAiAEEAPwAiADoAIgBBACIALAAiAEEAIgA6ACIAbADgAG0AIAB2AGkAxx5jACAAYwBoAG8AIABtANkedAAgAHgAsAHfHm4AZwAgAG4A2R5pACAAdABoAKUedAAgAG4AaADPHiAAYwBoAHUAeQDqAG4AIABzAKMebgAgAHgAdQClHnQAIABiAOAAbgAgAHYA4AAgAGcAaAC/HiAAdADrHiAAYwDhAGMAIAB0AKUebQAgAGcA1x4gAGMA9ABuAGcAIABuAGcAaABpAMcecAAuACAAWACwAd8ebgBnACAAcwDtHiAAZADlHm4AZwAgAGMA4QBjACAAdAClHm0AIABnANceIABsANsebgAgAGMA8wAgAGsA7QBjAGgAIAB0AGgAsAHbHmMAIABjANEeIAARAcsebgBoACAAbADgACAAMQAwADAAYwBtACAAKAByANkebgBnACkAIAB4ACAAMgAwADAAYwBtACAAKABkAOAAaQApACAAEQHDHiAAYwCvHnQAIAB0AGgA4ABuAGgAIABjAOEAYwAgAG0Aox5uAGgAIABuAGgAzx4gAHAAaADlHmMAIAB2AOUeIABnAGkAYQAgAGMA9ABuAGcAIABuANkeaQAgAHQAaAClHnQALgAgAE0A1x5pACAAbgBnAOAAeQAsACAAeACwAd8ebgBnACAAbgBoAK0ebgAgABEBoQFuACAAaADgAG4AZwAgAHkA6gB1ACAAYwCnHnUAIABjAK8edAAgAGMA4QBjACAAbQCjHm4AaAAgAGcA1x4gAHYA2x5pACAAcwDRHiAAbACwAeMebgBnACAAdgDgACAAawDtAGMAaAAgAHQAaACwAdseYwAgAGMA5R4gAHQAaADDHiAAEQHDHiAAbADgAG0AIABtALcedAAgAGIA4ABuACwAIABtALcedAAgAGcAaAC/HiwAIAB2AOAAIABjAGgA4gBuACAAYgDgAG4ALgAgAFQAdQB5ACAAbgBoAGkA6gBuACwAIAB2AGkAxx5jACAAcwCvHnAAIAB4AL8ecAAgAHQAaADnHiAAYwD0AG4AZwAgAHQAaACwAd0ebgBnACAAZACrHm4AIAARAb8ebgAgAGwA4wBuAGcAIABwAGgA7QAgAGcA1x4gAGgAbwC3HmMAIABzAO0eIABkAOUebgBnACAAbgBoAGkAwR51ACAAdAClHm0AIABoAKEBbgAgAG0A6R5jACAAYwCnHm4AIAB0AGgAaQC/HnQALAAgAGwA4ABtACAAdAADAW4AZwAgAGMAaABpACAAcABoAO0AIABzAKMebgAgAHgAdQClHnQALgBcAG4AIgB9ACwAewAiAEEAPwAiADoAIgBCACIALAAiAEEAIgA6ADQANgA0AH0ALAB7ACIAQQA/ACIAOgAiAEEAIgAsACIAQQAiADoAIgBcAG4AIgB9AF0ALAAiAEIAIgA6AFsAewAiAEEAPwAiADoAIgBBACIALAAiAEEAIgA6AHsAIgBmAG8AbgB0AC0AcwBpAHoAZQAiADoAewAiAEIAIgA6ACIANAAwAC4AMAAiAH0ALAAiAGYAbwBuAHQALQBmAGEAbQBpAGwAeQAiADoAewAiAEIAIgA6ACIAWQBBAEYAZABKAG4ANQBkADgAcwAwACwAMAAiAH0ALAAiAHQAZQB4AHQALQBhAGwAaQBnAG4AIgA6AHsAIgBCACIAOgAiAGoAdQBzAHQAaQBmAHkAIgB9AH0AfQAsAHsAIgBBAD8AIgA6ACIAQgAiACwAIgBBACIAOgA1ADEANwB9ACwAewAiAEEAPwAiADoAIgBBACIALAAiAEEAIgA6AHsAIgBjAG8AbABvAHIAIgA6AHsAIgBCACIAOgAiACMAMAAwADAAMAAwADAAIgB9AH0AfQAsAHsAIgBBAD8AIgA6ACIAQgAiACwAIgBBACIAOgA0ADYANQB9ACwAewAiAEEAPwAiADoAIgBBACIALAAiAEEAIgA6AHsAIgBmAG8AbgB0AC0AcwBpAHoAZQAiADoAewB9ACwAIgBmAG8AbgB0AC0AZgBhAG0AaQBsAHkAIgA6AHsAfQAsACIAdABlAHgAdAAtAGEAbABpAGcAbgAiADoAewB9ACwAIgBjAG8AbABvAHIAIgA6AHsAfQB9AH0AXQB9ACwAIgBiACIAOgB7ACIAQQAiADoAWwA1ADUALAA1ADAALAA1ADQALAA1ADIALAA1ADIALAA1ADEALAA1ADQALAA1ADMALAA1ADQALAAyADcALAAxAF0AfQAsACIAZAAiADoAIgBBACIALAAiAGcAIgA6AGYAYQBsAHMAZQAsACIAaAAiADoAIgBBACIAfQBdACwAIgBCACIAOgAxADkAMgAwACwAIgBDACIAOgAxADAAOAAwAH0A&quot;&gt;&lt;/span&gt;&lt;/font&gt;&lt;p&gt;&lt;font size=&quot;3&quot;&gt;Bạn là một AI engineer làm việc cho một xưởng nội thất nhỏ chuyên sản xuất bàn và ghế từ các tấm gỗ công nghiệp. Xưởng sử dụng các tấm gỗ lớn có kích thước cố định là 100cm (rộng) x 200cm (dài) để cắt thành các mảnh nhỏ phục vụ gia công nội thất. Mỗi ngày, xưởng nhận đơn hàng yêu cầu cắt các mảnh gỗ với số lượng và kích thước cụ thể để làm mặt bàn, mặt ghế, và chân bàn. Tuy nhiên, việc sắp xếp thủ công thường dẫn đến lãng phí gỗ hoặc sử dụng nhiều tấm hơn mức cần thiết, làm tăng chi phí sản xuất.&lt;/font&gt;&lt;/p&gt;&lt;/div&gt;" style="text;whiteSpace=wrap;html=1;" vertex="1" parent="1">
          <mxGeometry x="1250" y="-2060" width="710" height="160" as="geometry" />
        </mxCell>
      </root>
    </mxGraphModel>
  </diagram>
</mxfile>
